<?xml version="1.0" encoding="UTF-8"?>
<svg id="Layer_2" data-name="Layer 2" xmlns="http://www.w3.org/2000/svg" viewBox="0 0 242.5 44.09">
  <defs>
    <style>
      .cls-1 {
        fill: #e56a00;
      }

      .cls-2 {
        fill: #1f1f1f;
      }
    </style>
  </defs>
  <g id="Layer_13" data-name="Layer 13">
    <g>
      <g>
        <path class="cls-1" d="M47.24.5h5.28l5.2,13.64L62.97.5h5.23v19.47h-3.3V3.8h-.06l-5.91,16.17h-2.42l-5.91-16.17h-.06v16.17h-3.3V.5Z"/>
        <path class="cls-1" d="M71.85.5h3.46v19.47h-3.46V.5Z"/>
        <path class="cls-1" d="M79.03.5h3.46v8.25h.17L90.72.5h4.68l-9.1,8.99,9.71,10.48h-4.87l-8.44-9.57h-.19v9.57h-3.46V.5Z"/>
        <path class="cls-1" d="M97.87.5h12.9v3.14h-9.43v4.79h8.94v3.14h-8.94v5.28h9.93v3.14h-13.39V.5Z"/>
        <path class="cls-1" d="M113.98.5h3.46v16.34h8.28v3.14h-11.74V.5Z"/>
        <path class="cls-1" d="M136.62.5h3l8.39,19.47h-3.96l-1.82-4.46h-8.44l-1.76,4.46h-3.88L136.62.5ZM141.02,12.54l-3-7.92-3.05,7.92h6.05Z"/>
        <path class="cls-1" d="M150.18.5h4.59l9.43,14.47h.06V.5h3.46v19.47h-4.4l-9.63-14.93h-.05v14.93h-3.46V.5Z"/>
        <path class="cls-1" d="M189.09,18.54c-2.4,1.28-5.09,1.93-8.06,1.93-1.5,0-2.88-.24-4.14-.73-1.26-.49-2.34-1.17-3.25-2.06-.91-.89-1.62-1.96-2.13-3.2-.51-1.25-.77-2.63-.77-4.15s.26-2.97.77-4.25c.51-1.27,1.22-2.36,2.13-3.26.91-.9,1.99-1.59,3.25-2.08C178.15.24,179.53,0,181.03,0s2.88.18,4.18.54,2.47.99,3.49,1.91l-2.56,2.58c-.62-.6-1.38-1.07-2.27-1.4-.89-.33-1.83-.5-2.82-.5s-1.92.18-2.74.54-1.52.85-2.1,1.49c-.59.63-1.04,1.37-1.36,2.21-.32.84-.48,1.75-.48,2.72,0,1.04.16,2.01.48,2.89.32.88.77,1.64,1.36,2.28s1.29,1.15,2.1,1.51c.82.37,1.73.55,2.74.55.88,0,1.71-.08,2.49-.25s1.47-.42,2.08-.77v-4.59h-3.99v-3.14h7.45v9.96Z"/>
        <path class="cls-1" d="M192.5.5h12.9v3.14h-9.43v4.79h8.94v3.14h-8.94v5.28h9.93v3.14h-13.39V.5Z"/>
        <path class="cls-1" d="M209.3.5h3.46v16.34h8.28v3.14h-11.74V.5Z"/>
        <path class="cls-1" d="M221.85,10.31c0-1.56.26-2.97.77-4.25.51-1.27,1.22-2.36,2.13-3.26.91-.9,1.99-1.59,3.25-2.08C229.25.24,230.63,0,232.13,0c1.52-.02,2.92.21,4.18.67,1.26.47,2.36,1.15,3.27,2.05.92.9,1.63,1.98,2.15,3.25.51,1.27.77,2.68.77,4.24s-.26,2.91-.77,4.15c-.51,1.25-1.23,2.32-2.15,3.22s-2.01,1.6-3.27,2.1c-1.27.5-2.66.77-4.18.78-1.5,0-2.88-.24-4.14-.73-1.26-.49-2.34-1.17-3.25-2.06-.91-.89-1.62-1.96-2.13-3.2-.51-1.25-.77-2.63-.77-4.15ZM225.48,10.09c0,1.04.16,2.01.48,2.89.32.88.77,1.64,1.36,2.28s1.29,1.15,2.1,1.51c.82.37,1.73.55,2.74.55s1.93-.18,2.75-.55c.82-.37,1.53-.87,2.12-1.51s1.04-1.4,1.36-2.28c.32-.88.48-1.84.48-2.89,0-.97-.16-1.88-.48-2.72-.32-.84-.77-1.58-1.36-2.21-.59-.63-1.29-1.13-2.12-1.49-.83-.36-1.74-.54-2.75-.54s-1.92.18-2.74.54-1.52.85-2.1,1.49c-.59.63-1.04,1.37-1.36,2.21-.32.84-.48,1.75-.48,2.72Z"/>
      </g>
      <g>
        <path class="cls-2" d="M47.24,26.71h3.47c.54,0,1.05.05,1.54.16.49.1.93.28,1.31.53s.68.58.91.99c.23.41.34.92.34,1.53,0,.64-.12,1.17-.36,1.59-.24.42-.55.75-.93.99-.38.24-.8.41-1.25.51-.45.1-.88.15-1.29.15h-2.35v5.25h-1.39v-11.7ZM48.63,31.87h2.35c.69,0,1.26-.16,1.69-.47.44-.31.65-.8.65-1.46s-.22-1.15-.65-1.46c-.44-.31-1-.47-1.69-.47h-2.35v3.87Z"/>
        <path class="cls-2" d="M59.99,26.71h1.39v4.96h6.25v-4.96h1.39v11.7h-1.39v-5.45h-6.25v5.45h-1.39v-11.7Z"/>
        <path class="cls-2" d="M79.31,38.71c-.89,0-1.71-.16-2.45-.46-.74-.31-1.39-.74-1.93-1.28-.54-.55-.97-1.2-1.27-1.95-.3-.75-.45-1.57-.45-2.45s.15-1.7.45-2.45c.3-.75.73-1.4,1.27-1.95.55-.54,1.19-.97,1.93-1.28s1.56-.46,2.45-.46,1.71.15,2.45.46c.74.31,1.39.74,1.93,1.28.55.55.97,1.2,1.27,1.95.3.75.45,1.57.45,2.45s-.15,1.7-.45,2.45c-.3.75-.73,1.4-1.27,1.95-.54.54-1.19.97-1.93,1.28-.74.31-1.56.46-2.45.46ZM79.31,37.42c.68,0,1.31-.13,1.88-.38.57-.25,1.05-.6,1.46-1.04.41-.44.72-.96.95-1.54.23-.59.34-1.22.34-1.89s-.11-1.3-.34-1.89-.54-1.1-.95-1.54c-.41-.44-.9-.79-1.46-1.04-.57-.25-1.19-.38-1.88-.38s-1.31.13-1.88.38c-.57.25-1.05.6-1.46,1.04-.41.44-.72.96-.95,1.54s-.34,1.22-.34,1.89.11,1.3.34,1.89c.23.59.54,1.1.95,1.54.41.44.89.79,1.46,1.04.57.25,1.19.38,1.88.38Z"/>
        <path class="cls-2" d="M97.26,28h-3.87v10.41h-1.39v-10.41h-3.87v-1.29h9.12v1.29Z"/>
        <path class="cls-2" d="M106.1,38.71c-.89,0-1.71-.16-2.45-.46-.74-.31-1.39-.74-1.93-1.28-.54-.55-.97-1.2-1.27-1.95-.3-.75-.45-1.57-.45-2.45s.15-1.7.45-2.45c.3-.75.73-1.4,1.27-1.95.55-.54,1.19-.97,1.93-1.28s1.56-.46,2.45-.46,1.71.15,2.45.46c.74.31,1.39.74,1.93,1.28.55.55.97,1.2,1.27,1.95.3.75.45,1.57.45,2.45s-.15,1.7-.45,2.45c-.3.75-.73,1.4-1.27,1.95-.54.54-1.19.97-1.93,1.28-.74.31-1.56.46-2.45.46ZM106.1,37.42c.68,0,1.31-.13,1.88-.38.57-.25,1.05-.6,1.46-1.04.41-.44.72-.96.95-1.54.23-.59.34-1.22.34-1.89s-.11-1.3-.34-1.89-.54-1.1-.95-1.54c-.41-.44-.9-.79-1.46-1.04-.57-.25-1.19-.38-1.88-.38s-1.31.13-1.88.38c-.57.25-1.05.6-1.46,1.04-.41.44-.72.96-.95,1.54s-.34,1.22-.34,1.89.11,1.3.34,1.89c.23.59.54,1.1.95,1.54.41.44.89.79,1.46,1.04.57.25,1.19.38,1.88.38Z"/>
        <path class="cls-2" d="M127.46,37.62c-.67.37-1.38.65-2.12.83s-1.5.26-2.26.26c-.91,0-1.75-.15-2.51-.45-.76-.3-1.42-.72-1.97-1.26-.56-.54-.99-1.19-1.3-1.94-.31-.75-.46-1.59-.46-2.5s.16-1.76.49-2.52c.33-.75.77-1.4,1.35-1.93.57-.53,1.24-.95,2-1.25.76-.3,1.58-.45,2.46-.45.77,0,1.51.12,2.22.35.71.23,1.35.63,1.91,1.19l-1.04,1.09c-.4-.43-.88-.76-1.45-.99-.57-.23-1.15-.35-1.74-.35-.67,0-1.29.12-1.87.36-.57.24-1.07.58-1.5,1.01s-.75.94-.99,1.54c-.24.59-.36,1.24-.36,1.95s.12,1.34.36,1.93c.24.59.57,1.11.99,1.54.42.44.93.77,1.53,1.02s1.25.36,1.97.36c.47,0,.97-.06,1.49-.17.52-.12.99-.28,1.42-.5v-3.58h-2.69v-1.29h4.08v5.75Z"/>
        <path class="cls-2" d="M133.01,26.71h2.99c.56,0,1.12.03,1.68.1.56.07,1.05.21,1.5.43.44.22.8.54,1.07.97s.41,1,.41,1.73c0,.86-.26,1.55-.78,2.08-.52.53-1.23.86-2.15,1.01l3.32,5.39h-1.7l-3.17-5.25h-1.78v5.25h-1.39v-11.7ZM134.4,31.87h1.24c.38,0,.78-.01,1.2-.03.41-.02.79-.09,1.14-.21.35-.12.63-.31.86-.57s.34-.63.34-1.12c0-.42-.08-.75-.25-1.01-.17-.25-.38-.45-.65-.59s-.57-.23-.91-.27c-.34-.04-.67-.07-1.02-.07h-1.95v3.87Z"/>
        <path class="cls-2" d="M149.43,26.71h1.31l4.97,11.7h-1.62l-1.19-2.88h-5.85l-1.21,2.88h-1.57l5.15-11.7ZM150.06,28.5h-.03l-2.43,5.75h4.78l-2.31-5.75Z"/>
        <path class="cls-2" d="M160.24,26.71h3.47c.54,0,1.05.05,1.54.16s.93.28,1.31.53.68.58.91.99c.23.41.34.92.34,1.53,0,.64-.12,1.17-.36,1.59-.24.42-.55.75-.93.99s-.8.41-1.25.51c-.45.1-.88.15-1.29.15h-2.35v5.25h-1.39v-11.7ZM161.63,31.87h2.35c.69,0,1.26-.16,1.69-.47.44-.31.65-.8.65-1.46s-.22-1.15-.65-1.46c-.43-.31-1-.47-1.69-.47h-2.35v3.87Z"/>
        <path class="cls-2" d="M172,26.71h1.39v4.96h6.25v-4.96h1.39v11.7h-1.39v-5.45h-6.25v5.45h-1.39v-11.7Z"/>
        <path class="cls-2" d="M189.96,33.37l-4.36-6.66h1.77l3.29,5.29,3.39-5.29h1.67l-4.36,6.66v5.04h-1.39v-5.04Z"/>
      </g>
      <g>
        <polygon class="cls-1" points="21.76 29.58 7.55 44.09 7.55 29.52 21.76 15.05 21.76 29.58"/>
        <path class="cls-2" d="M27.8.82h-9.59L7.54,11.66,0,3.98v14.53l7.53,7.69,14.28-14.26h5.96c.84,0,1.53.7,1.53,1.56s-.68,1.56-1.53,1.56h-6.01v11.11s5.95,0,5.95,0c6.97,0,12.41-5.78,12.41-12.68S34.64.82,27.8.82Z"/>
      </g>
    </g>
  </g>
</svg>