<?xml version="1.0" encoding="UTF-8"?>
<svg id="Layer_2" data-name="Layer 2" xmlns="http://www.w3.org/2000/svg" viewBox="0 0 458.72 99.82">
  <defs>
    <style>
      .cls-1 {
        fill: #58595b;
      }

      .cls-2 {
        fill: #f68520;
      }
    </style>
  </defs>
  <g id="COLOR">
    <g>
      <g>
        <polygon class="cls-2" points="156.08 15.92 139.77 49.17 123.3 15.92 121.13 15.92 114.82 59.98 120.9 59.98 124.71 32.03 138.59 59.98 140.9 59.98 154.61 32.26 158.44 59.98 164.58 59.98 158.24 15.92 156.08 15.92"/>
        <rect class="cls-2" x="169.43" y="26.87" width="6" height="33.11"/>
        <path class="cls-2" d="M172.42,14.06c-1.16,0-2.18.43-3.02,1.27-.83.84-1.26,1.87-1.26,3.05s.42,2.18,1.26,3.02c.84.84,1.85,1.27,3.02,1.27s2.21-.43,3.04-1.27c.83-.84,1.26-1.86,1.26-3.02s-.42-2.21-1.26-3.05c-.84-.84-1.86-1.27-3.04-1.27Z"/>
        <polygon class="cls-2" points="209.7 26.87 200.78 26.87 187.73 38.23 187.73 14.86 181.72 14.86 181.72 59.98 187.73 59.98 187.73 47.21 202.01 59.98 210.63 59.98 191.44 42.72 209.7 26.87"/>
        <path class="cls-2" d="M243.73,43.73c-.04-4.46-1.27-8.24-3.65-11.25-3.35-4.25-7.89-6.41-13.49-6.41s-9.87,2.11-13.12,6.27c-2.55,3.25-3.85,7.01-3.85,11.17,0,4.42,1.53,8.43,4.53,11.93,3.05,3.54,7.31,5.34,12.66,5.34,2.4,0,4.59-.37,6.51-1.11,1.92-.74,3.67-1.83,5.21-3.24,1.53-1.41,2.89-3.27,4.05-5.54l.45-.88-5.08-2.67-.49.81c-1.16,1.93-2.24,3.34-3.21,4.18-.95.83-2.13,1.5-3.51,2.01-1.38.51-2.82.76-4.28.76-3.02,0-5.5-1.03-7.55-3.16-1.86-1.92-2.89-4.28-3.13-7.19h27.94v-1.01ZM216.52,39.28c.74-2.04,1.72-3.61,2.93-4.69,2.02-1.81,4.38-2.69,7.21-2.69,1.69,0,3.33.36,4.87,1.08,1.53.71,2.77,1.66,3.69,2.81.72.91,1.32,2.08,1.79,3.49h-20.49Z"/>
        <rect class="cls-2" x="248.59" y="14.86" width="6" height="45.11"/>
        <path class="cls-2" d="M287.96,30.83c-1.21-1.25-2.54-2.26-3.98-3.01-2.2-1.16-4.69-1.74-7.4-1.74-4.68,0-8.74,1.71-12.06,5.07-3.32,3.36-5,7.47-5,12.19s1.67,8.98,4.96,12.35c3.3,3.38,7.33,5.09,12,5.09,2.62,0,5.07-.55,7.29-1.65,1.5-.74,2.9-1.73,4.21-2.96v3.81h5.94V26.87h-5.94v3.96ZM284.95,35.26c2.2,2.25,3.27,4.97,3.27,8.32,0,2.18-.49,4.16-1.46,5.88-.96,1.71-2.36,3.09-4.15,4.1-3.57,2.02-7.84,2.05-11.32,0-1.73-1.02-3.13-2.46-4.16-4.3-1.03-1.84-1.56-3.79-1.56-5.79s.52-3.97,1.54-5.79c1.02-1.81,2.41-3.24,4.13-4.24,1.72-1,3.63-1.51,5.67-1.51,3.21,0,5.84,1.09,8.04,3.33Z"/>
        <path class="cls-2" d="M324.32,28.01c-1.96-1.28-4.22-1.94-6.74-1.94s-4.74.57-6.83,1.71c-1.35.74-2.64,1.73-3.84,2.96v-3.87h-6v33.11h6v-12.41c0-4,.18-6.76.54-8.21.55-2.15,1.72-3.97,3.46-5.43,1.75-1.46,3.67-2.17,5.87-2.17,1.88,0,3.4.45,4.53,1.34,1.13.89,1.9,2.26,2.32,4.1.28,1.12.42,3.45.42,6.94v15.84h6v-17.01c0-4.41-.45-7.59-1.37-9.74-.93-2.18-2.4-3.93-4.36-5.22Z"/>
        <path class="cls-2" d="M363.44,30.74c-1.42-1.36-2.89-2.41-4.39-3.13-2.14-1.02-4.47-1.54-6.94-1.54-2.97,0-5.83.78-8.5,2.3-2.67,1.53-4.79,3.64-6.31,6.27-1.51,2.63-2.28,5.51-2.28,8.55s.74,5.87,2.19,8.42c1.46,2.55,3.55,4.6,6.21,6.11,2.66,1.5,5.54,2.26,8.56,2.26,2.58,0,5.05-.55,7.35-1.62,1.51-.71,2.87-1.62,4.09-2.74-.07,2.76-.43,4.79-1.08,6.03-.7,1.35-1.92,2.5-3.61,3.41-1.73.93-3.89,1.4-6.44,1.4s-4.77-.46-6.49-1.37c-1.69-.9-3.1-2.31-4.18-4.19l-.29-.5h-6.48l.65,1.42c1.17,2.55,2.49,4.53,3.91,5.88,1.43,1.36,3.3,2.46,5.54,3.26,2.22.79,4.76,1.19,7.53,1.19,3.81,0,7.12-.83,9.86-2.46,2.78-1.66,4.76-4.05,5.89-7.11.81-2.16,1.21-5.41,1.21-9.93v-25.79h-6v3.87ZM362.22,37.38c.94,1.68,1.42,3.63,1.42,5.79,0,3.35-1,5.97-3.06,8.01-2.06,2.04-4.74,3.03-8.18,3.03s-6.08-1-8.19-3.06c-2.11-2.05-3.13-4.59-3.13-7.75,0-2.06.51-4.01,1.53-5.78,1.01-1.77,2.42-3.17,4.2-4.17,1.78-1,3.74-1.51,5.83-1.51s3.87.5,5.6,1.47c1.72.97,3.06,2.31,3.99,3.98Z"/>
        <path class="cls-2" d="M408.6,43.73c-.04-4.46-1.27-8.24-3.65-11.25-3.35-4.25-7.89-6.41-13.49-6.41s-9.87,2.11-13.12,6.27c-2.55,3.25-3.85,7.01-3.85,11.17,0,4.42,1.53,8.43,4.53,11.93,3.05,3.54,7.31,5.34,12.66,5.34,2.4,0,4.59-.37,6.51-1.11,1.92-.74,3.67-1.83,5.21-3.24,1.53-1.41,2.89-3.27,4.05-5.54l.45-.88-5.08-2.67-.49.81c-1.16,1.93-2.24,3.34-3.21,4.18-.95.83-2.13,1.5-3.51,2.01-1.38.51-2.82.76-4.28.76-3.03,0-5.5-1.03-7.55-3.16-1.86-1.92-2.89-4.28-3.13-7.19h27.94v-1.01ZM381.39,39.28c.74-2.04,1.72-3.61,2.93-4.69,2.03-1.81,4.38-2.69,7.21-2.69,1.69,0,3.33.36,4.87,1.08,1.53.71,2.77,1.66,3.69,2.81.72.91,1.32,2.08,1.79,3.49h-20.49Z"/>
        <rect class="cls-2" x="413.47" y="14.86" width="6" height="45.11"/>
        <path class="cls-2" d="M454.16,31.6c-3.33-3.67-7.59-5.53-12.66-5.53s-9.35,1.87-12.68,5.56c-3.02,3.34-4.55,7.33-4.55,11.88s1.62,8.65,4.81,12.07c3.21,3.45,7.39,5.19,12.43,5.19s9.19-1.75,12.4-5.19c3.19-3.43,4.81-7.49,4.81-12.07s-1.53-8.57-4.56-11.91ZM431.84,49.4c-1-1.79-1.51-3.74-1.51-5.8,0-3.25,1.08-5.94,3.3-8.22,2.21-2.28,4.79-3.39,7.86-3.39s5.62,1.11,7.85,3.39c2.23,2.29,3.32,4.98,3.32,8.22,0,2.06-.51,4.02-1.51,5.8-1,1.78-2.36,3.16-4.04,4.12-1.69.97-3.58,1.46-5.62,1.46s-3.92-.49-5.62-1.46c-1.69-.96-3.05-2.35-4.04-4.12Z"/>
      </g>
      <g>
        <path class="cls-1" d="M114.97,70.04h3.18c1.82,0,3.05.08,3.69.24.91.22,1.66.69,2.24,1.38.58.7.87,1.58.87,2.63s-.28,1.94-.85,2.63-1.34,1.15-2.33,1.39c-.72.17-2.08.26-4.06.26h-1.14v7.42h-1.59v-15.96ZM116.57,71.6v5.41l2.7.03c1.09,0,1.89-.1,2.4-.3s.9-.52,1.19-.96c.29-.44.43-.94.43-1.49s-.14-1.02-.43-1.47c-.29-.44-.67-.76-1.14-.95-.47-.19-1.25-.28-2.33-.28h-2.82Z"/>
        <path class="cls-1" d="M133.22,70.04h1.59v6.69h8.13v-6.69h1.59v15.96h-1.59v-7.7h-8.13v7.7h-1.59v-15.96Z"/>
        <path class="cls-1" d="M161.13,69.64c2.42,0,4.44.81,6.07,2.42,1.63,1.61,2.44,3.6,2.44,5.96s-.81,4.32-2.44,5.95c-1.63,1.63-3.61,2.44-5.94,2.44s-4.37-.81-5.99-2.43-2.44-3.58-2.44-5.88c0-1.53.37-2.95,1.11-4.26.74-1.31,1.75-2.33,3.03-3.08,1.28-.74,2.67-1.11,4.16-1.11ZM161.2,71.19c-1.18,0-2.3.31-3.36.92-1.06.61-1.88,1.44-2.48,2.49-.59,1.04-.89,2.2-.89,3.49,0,1.9.66,3.5,1.97,4.81,1.32,1.31,2.9,1.96,4.75,1.96,1.24,0,2.39-.3,3.44-.9,1.05-.6,1.88-1.42,2.47-2.46s.89-2.2.89-3.47-.3-2.41-.89-3.44c-.59-1.02-1.42-1.84-2.49-2.46-1.07-.62-2.21-.92-3.41-.92Z"/>
        <path class="cls-1" d="M176.37,71.6v-1.56h8.75v1.56h-3.56v14.4h-1.63v-14.4h-3.56Z"/>
        <path class="cls-1" d="M200.13,69.64c2.42,0,4.44.81,6.07,2.42,1.63,1.61,2.44,3.6,2.44,5.96s-.81,4.32-2.44,5.95c-1.63,1.63-3.61,2.44-5.94,2.44s-4.37-.81-5.99-2.43-2.44-3.58-2.44-5.88c0-1.53.37-2.95,1.11-4.26.74-1.31,1.75-2.33,3.03-3.08,1.28-.74,2.67-1.11,4.16-1.11ZM200.2,71.19c-1.18,0-2.3.31-3.36.92-1.06.61-1.88,1.44-2.48,2.49-.59,1.04-.89,2.2-.89,3.49,0,1.9.66,3.5,1.97,4.81,1.32,1.31,2.9,1.96,4.75,1.96,1.24,0,2.39-.3,3.44-.9,1.05-.6,1.88-1.42,2.47-2.46s.89-2.2.89-3.47-.3-2.41-.89-3.44c-.59-1.02-1.42-1.84-2.49-2.46-1.07-.62-2.21-.92-3.41-.92Z"/>
        <path class="cls-1" d="M232.35,72.72l-1.24,1.17c-.89-.88-1.86-1.54-2.92-1.99-1.06-.45-2.09-.68-3.1-.68-1.25,0-2.44.31-3.57.92-1.13.61-2.01,1.45-2.63,2.5-.62,1.05-.93,2.16-.93,3.34s.32,2.34.97,3.42c.64,1.08,1.53,1.93,2.67,2.55,1.14.62,2.38.93,3.73.93,1.64,0,3.03-.46,4.17-1.39,1.14-.93,1.81-2.13,2.02-3.6h-5.09v-1.54h6.88c-.01,2.47-.75,4.43-2.2,5.87-1.45,1.45-3.39,2.18-5.82,2.18-2.95,0-5.29-1.01-7.01-3.02-1.32-1.55-1.99-3.34-1.99-5.37,0-1.51.38-2.92,1.14-4.22s1.8-2.32,3.12-3.05,2.82-1.1,4.49-1.1c1.35,0,2.63.24,3.82.73,1.19.49,2.36,1.27,3.49,2.35Z"/>
        <path class="cls-1" d="M241.53,70.04h3.18c1.77,0,2.97.07,3.6.22.95.22,1.72.68,2.31,1.4s.89,1.59.89,2.63c0,.87-.2,1.63-.61,2.29s-.99,1.16-1.75,1.49-1.81.51-3.15.52l5.74,7.41h-1.97l-5.74-7.41h-.9v7.41h-1.59v-15.96ZM243.12,71.6v5.43l2.75.02c1.06,0,1.85-.1,2.36-.3.51-.2.91-.53,1.2-.97s.43-.94.43-1.49-.14-1.02-.44-1.46c-.29-.44-.67-.75-1.14-.94s-1.25-.28-2.35-.28h-2.81Z"/>
        <path class="cls-1" d="M266.56,70.04l7.44,15.96h-1.72l-2.51-5.25h-6.88l-2.49,5.25h-1.78l7.54-15.96h.39ZM266.36,73.43l-2.74,5.78h5.46l-2.72-5.78Z"/>
        <path class="cls-1" d="M281.58,70.04h3.18c1.82,0,3.05.08,3.69.24.91.22,1.66.69,2.24,1.38.58.7.87,1.58.87,2.63s-.28,1.94-.85,2.63-1.34,1.15-2.33,1.39c-.72.17-2.08.26-4.06.26h-1.14v7.42h-1.59v-15.96ZM283.17,71.6v5.41l2.7.03c1.09,0,1.89-.1,2.4-.3s.9-.52,1.19-.96c.29-.44.43-.94.43-1.49s-.14-1.02-.43-1.47c-.29-.44-.67-.76-1.14-.95-.47-.19-1.25-.28-2.33-.28h-2.82Z"/>
        <path class="cls-1" d="M299.83,70.04h1.59v6.69h8.13v-6.69h1.59v15.96h-1.59v-7.7h-8.13v7.7h-1.59v-15.96Z"/>
        <path class="cls-1" d="M318.88,70.04h1.83l4.08,6.58,4.02-6.58h1.84l-5.06,8.33v7.63h-1.57v-7.63l-5.15-8.33Z"/>
      </g>
      <g>
        <path class="cls-2" d="M21.22,30.26l12.88-17.25c11.15.82,23.34,2.6,29.2,3.52C54.95,8.04,48.32,2.35,44.32.3c-12.41,1.39-23.45,7.31-31.4,16.09-.27.47-.53.96-.77,1.46l9.08,12.4Z"/>
        <path class="cls-2" d="M21.23,65.12L1.36,38.36c-.88,3.71-1.36,7.57-1.36,11.54,0,24.48,17.63,44.83,40.88,49.09v-60.64s-19.65,26.77-19.65,26.77Z"/>
        <path class="cls-2" d="M80.53,29.77c-.91-10.21-2.62-18.44-4.19-22.22C68.86,2.88,60.05.13,50.6,0c9.34,7.28,23.27,22.24,29.93,29.77Z"/>
        <path class="cls-2" d="M97.31,34.21c-2.88-8.71-8.09-16.35-14.9-22.19,2.49,11.61,3.67,31.55,3.93,41.61,5.94-8.54,9.8-15.53,10.97-19.41Z"/>
        <path class="cls-2" d="M96.43,68.02c2.19-5.62,3.4-11.72,3.4-18.11,0-2.78-.24-5.5-.67-8.16-5.43,10.45-16.94,25.49-23.28,33.47,9.75-2.61,16.97-5.09,20.55-7.2Z"/>
        <path class="cls-2" d="M52.98,85.4c7.03,3.33,17.23,7.13,22.04,7.65,7.49-4.37,13.73-10.62,18.09-18.12-5.49,2.2-14.19,4.54-24.27,6.97-5.95,1.44-11.58,2.64-15.85,3.51Z"/>
        <path class="cls-2" d="M44.58,86.32l.02,13.21c1.75.19,3.52.28,5.32.28,6.79,0,13.26-1.36,19.16-3.82,0,0,.02-.01.02-.02-5.52-1.67-14.96-4.91-24.52-9.66Z"/>
      </g>
    </g>
  </g>
</svg>